<svg width="20" height="20" viewBox="0 0 20 20" fill="none" xmlns="http://www.w3.org/2000/svg">
<path d="M15.8889 2.5H5.22224V6.05556H15.8889V2.5ZM16.7778 10.5C16.5421 10.5 16.316 10.4063 16.1493 10.2397C15.9826 10.073 15.8889 9.84686 15.8889 9.61111C15.8889 9.37536 15.9826 9.14927 16.1493 8.98257C16.316 8.81587 16.5421 8.72222 16.7778 8.72222C17.0135 8.72222 17.2396 8.81587 17.4063 8.98257C17.573 9.14927 17.6667 9.37536 17.6667 9.61111C17.6667 9.84686 17.573 10.073 17.4063 10.2397C17.2396 10.4063 17.0135 10.5 16.7778 10.5ZM14.1111 16.7222H7.00002V12.2778H14.1111V16.7222ZM16.7778 6.94444H4.33335C3.62611 6.94444 2.94783 7.2254 2.44774 7.72549C1.94764 8.22559 1.66669 8.90387 1.66669 9.61111V14.9444H5.22224V18.5H15.8889V14.9444H19.4445V9.61111C19.4445 8.90387 19.1635 8.22559 18.6634 7.72549C18.1633 7.2254 17.485 6.94444 16.7778 6.94444Z" fill="#FFFFFF"/>
</svg>
