<svg width="20" height="20" viewBox="0 0 20 20" fill="none" xmlns="http://www.w3.org/2000/svg">
<path d="M15.2222 2H4.55556V5.55556H15.2222V2ZM16.1111 10C15.8754 10 15.6493 9.90635 15.4826 9.73965C15.3159 9.57295 15.2222 9.34686 15.2222 9.11111C15.2222 8.87536 15.3159 8.64927 15.4826 8.48257C15.6493 8.31587 15.8754 8.22222 16.1111 8.22222C16.3469 8.22222 16.573 8.31587 16.7397 8.48257C16.9063 8.64927 17 8.87536 17 9.11111C17 9.34686 16.9063 9.57295 16.7397 9.73965C16.573 9.90635 16.3469 10 16.1111 10ZM13.4444 16.2222H6.33333V11.7778H13.4444V16.2222ZM16.1111 6.44444H3.66667C2.95942 6.44444 2.28115 6.7254 1.78105 7.22549C1.28095 7.72559 1 8.40387 1 9.11111V14.4444H4.55556V18H15.2222V14.4444H18.7778V9.11111C18.7778 8.40387 18.4968 7.72559 17.9967 7.22549C17.4966 6.7254 16.8184 6.44444 16.1111 6.44444Z" fill="white"/>
</svg>
