<svg width="20" height="20" viewBox="0 0 20 20" fill="none" xmlns="http://www.w3.org/2000/svg">
<path d="M5.54571 9.86427H12.6371V11.6371H5.54571V9.86427ZM7.31856 16.9557H3.77285V2.77285H9.97784V7.20499H14.41V9.95291L16.1828 8.18006V6.31856L10.8643 1H3.77285C3.30266 1 2.85173 1.18678 2.51926 1.51926C2.18678 1.85173 2 2.30266 2 2.77285V16.9557C2 17.4259 2.18678 17.8768 2.51926 18.2093C2.85173 18.5417 3.30266 18.7285 3.77285 18.7285H7.31856V16.9557ZM5.54571 15.1828H9.18006L9.97784 14.385V13.41H5.54571V15.1828ZM16.3601 10.7507C16.4488 10.7507 16.626 10.8393 16.7147 10.928L17.867 12.0803C18.0443 12.2576 18.0443 12.6122 17.867 12.7895L16.9806 13.6759L15.1191 11.8144L16.0055 10.928C16.0942 10.8393 16.1828 10.7507 16.3601 10.7507V10.7507ZM16.3601 14.2078L10.9529 19.615H9.09141V17.7535L14.4986 12.3463L16.3601 14.2078V14.2078Z" fill="#333333"/>
</svg>
