<svg width="20" height="20" viewBox="0 0 20 20" fill="none" xmlns="http://www.w3.org/2000/svg">
<path d="M13.2 15.0933V16.8H2V15.0933C2 15.0933 2 11.68 7.6 11.68C13.2 11.68 13.2 15.0933 13.2 15.0933ZM10.4 6.9867C10.4 6.396 10.2358 5.81856 9.92812 5.3274C9.62045 4.83625 9.18315 4.45344 8.67151 4.22739C8.15988 4.00134 7.59689 3.94219 7.05375 4.05743C6.5106 4.17267 6.01169 4.45712 5.6201 4.87482C5.22851 5.29251 4.96184 5.82468 4.8538 6.40403C4.74576 6.98339 4.80121 7.5839 5.01314 8.12964C5.22506 8.67538 5.58395 9.14184 6.0444 9.47001C6.50486 9.79819 7.04621 9.97336 7.6 9.97336C8.34261 9.97336 9.0548 9.65869 9.5799 9.09858C10.105 8.53848 10.4 7.77881 10.4 6.9867V6.9867ZM13.152 11.68C13.6438 12.086 14.0462 12.602 14.3309 13.1917C14.6157 13.7814 14.7758 14.4305 14.8 15.0933V16.8H18V15.0933C18 15.0933 18 11.9957 13.152 11.68V11.68ZM12.4 4.00004C11.8494 3.99677 11.3108 4.17238 10.856 4.50351C11.342 5.22776 11.6032 6.09607 11.6032 6.9867C11.6032 7.87733 11.342 8.74564 10.856 9.46989C11.3108 9.80102 11.8494 9.97663 12.4 9.97336C13.1426 9.97336 13.8548 9.65869 14.3799 9.09858C14.905 8.53848 15.2 7.77881 15.2 6.9867C15.2 6.19459 14.905 5.43492 14.3799 4.87482C13.8548 4.31471 13.1426 4.00004 12.4 4.00004V4.00004Z" fill="#FFFFFF"/>
</svg>
