<svg width="20" height="20" viewBox="0 0 20 20" fill="none" xmlns="http://www.w3.org/2000/svg">
<path d="M3.52381 2C3.11967 2 2.73208 2.16054 2.44631 2.44631C2.16054 2.73208 2 3.11967 2 3.52381V15.7143C2 16.1184 2.16054 16.506 2.44631 16.7918C2.73208 17.0776 3.11967 17.2381 3.52381 17.2381H9.93143C10.7576 17.7346 11.7028 17.9979 12.6667 18C14.0812 18 15.4377 17.4381 16.4379 16.4379C17.4381 15.4377 18 14.0812 18 12.6667C17.9987 11.5192 17.6273 10.4028 16.941 9.48313C16.2547 8.56351 15.2901 7.88975 14.1905 7.5619V6.57143L9.61905 2H3.52381ZM3.52381 3.52381H8.85714V7.33333H12.6667C11.2522 7.33333 9.89562 7.89524 8.89543 8.89543C7.89524 9.89562 7.33333 11.2522 7.33333 12.6667C7.33435 13.7568 7.66939 14.8204 8.29333 15.7143H3.52381V3.52381ZM12.6667 8.85714C13.677 8.85714 14.646 9.2585 15.3604 9.97293C16.0748 10.6874 16.4762 11.6563 16.4762 12.6667C16.4762 13.677 16.0748 14.646 15.3604 15.3604C14.646 16.0748 13.677 16.4762 12.6667 16.4762C11.6563 16.4762 10.6874 16.0748 9.97293 15.3604C9.2585 14.646 8.85714 13.677 8.85714 12.6667C8.85714 11.6563 9.2585 10.6874 9.97293 9.97293C10.6874 9.2585 11.6563 8.85714 12.6667 8.85714ZM11.9048 9.61905V13.4286L14.6552 15.0743L15.2267 14.1448L13.0476 12.8571V9.61905H11.9048Z" fill="#333333"/>
</svg>
