<svg width="20" height="20" viewBox="0 0 20 20" fill="none" xmlns="http://www.w3.org/2000/svg">
<path d="M14.0556 15V12.3333H7.83333V8.77774H14.0556V6.11107L18.5 10.5555L14.0556 15ZM12.2778 1.66663C12.7493 1.66663 13.2015 1.85393 13.5349 2.18732C13.8683 2.52072 14.0556 2.97291 14.0556 3.4444V5.22218H12.2778V3.4444H4.27778V17.6666H12.2778V15.8888H14.0556V17.6666C14.0556 18.1381 13.8683 18.5903 13.5349 18.9237C13.2015 19.2571 12.7493 19.4444 12.2778 19.4444H4.27778C3.80628 19.4444 3.3541 19.2571 3.0207 18.9237C2.6873 18.5903 2.5 18.1381 2.5 17.6666V3.4444C2.5 2.97291 2.6873 2.52072 3.0207 2.18732C3.3541 1.85393 3.80628 1.66663 4.27778 1.66663H12.2778Z" fill="#333333"/>
</svg>
