<svg width="20" height="20" viewBox="0 0 20 20" fill="none" xmlns="http://www.w3.org/2000/svg">
<path d="M7.94286 2C9.519 2 11.0306 2.62612 12.1451 3.74062C13.2596 4.85512 13.8857 6.36671 13.8857 7.94286C13.8857 9.41486 13.3463 10.768 12.4594 11.8103L12.7063 12.0571H13.4286L18 16.6286L16.6286 18L12.0571 13.4286V12.7063L11.8103 12.4594C10.7319 13.3799 9.36065 13.8856 7.94286 13.8857C6.36671 13.8857 4.85512 13.2596 3.74062 12.1451C2.62612 11.0306 2 9.519 2 7.94286C2 6.36671 2.62612 4.85512 3.74062 3.74062C4.85512 2.62612 6.36671 2 7.94286 2V2ZM7.94286 3.82857C5.65714 3.82857 3.82857 5.65714 3.82857 7.94286C3.82857 10.2286 5.65714 12.0571 7.94286 12.0571C10.2286 12.0571 12.0571 10.2286 12.0571 7.94286C12.0571 5.65714 10.2286 3.82857 7.94286 3.82857Z" fill="#FFFFFF"/>
</svg>
